<?xml version="1.0" encoding="UTF-8"?>
<svg id="_חדש" data-name="חדש" xmlns="http://www.w3.org/2000/svg" viewBox="0 0 147.06 185.36">
  <defs>
    <style>
      .cls-1 {
        fill: #fcf7ee;
      }
    </style>
  </defs>
  <path class="cls-1" d="M46.58,125.01l-19.55-54c-.11-.3-.05-.64.17-.88l13.44-15.37c.3-.35.82-.4,1.19-.12l14.59,11.03c.18.13.3.33.34.55l7.94,45.44c.06.32-.07.64-.32.84l-16.42,12.9c-.47.37-1.17.17-1.37-.39Z"/>
  <path class="cls-1" d="M54.12,164.08l-16.26-19.78c-.31-.37-.25-.92.12-1.23l48.31-40.21c.2-.17.47-.24.73-.19l18.55,3.7c.6.12.9.8.58,1.32l-7.35,11.97-26.92,43.52c-.12.19-.3.33-.52.39l-13.55,3.69c-.31.08-.64,0-.86-.24l-2.79-2.89s-.03-.03-.05-.05Z"/>
  <path class="cls-1" d="M86.15,95.05l-14,12.59c-.52.46-1.34.18-1.46-.51l-5.58-33.34-.97-6.08c-.04-.27.04-.55.23-.75l2.95-3.06,30.58-31.27c.26-.27.67-.34,1.01-.18l23.03,11.05c.49.24.65.86.33,1.31l-11.75,16.37-16.68,23.12-7.56,10.6c-.04.05-.08.1-.13.14Z"/>
  <path class="cls-1" d="M100.89,168.38l-19.56-4.83c-.58-.14-.85-.8-.54-1.31l9.07-15.02,22.91-37.97c.19-.32.56-.48.92-.41l4.3.83c.39.08.69.41.71.81l1.75,28.99c.01.19-.04.38-.14.54l-18.47,28.01c-.21.31-.58.46-.95.37Z"/>
  <path class="cls-1" d="M129.24,75.94l-9.23,26.61c-.14.42-.57.66-1,.57l-24.21-4.85c-.62-.12-.91-.85-.55-1.37l31.33-44.33c.43-.6,1.36-.44,1.56.27l4.54,15.88c.05.18.04.37-.02.54l-2.43,6.67Z"/>
  <path class="cls-1" d="M93,27.49l-9.48,9.62c-.35.35-.91.35-1.26,0l-11.13-11.42c-.36-.37-.33-.97.07-1.3l8.45-6.87c.14-.12.32-.19.51-.2l6.86-.36c.33-.02.64.15.81.43l5.31,9.04c.2.34.15.78-.13,1.06Z"/>
  <path class="cls-1" d="M64.63,56.01l-4.04,4.15c-.31.32-.81.35-1.16.09l-14.3-10.77c-.43-.32-.47-.96-.08-1.33l19.14-18.56c.36-.35.93-.33,1.26.04l11.55,12.72c.31.35.3.88-.03,1.21l-12.34,12.46Z"/>
  <path class="cls-1" d="M36.68,133.2l-21.07-20.13c-.2-.19-.29-.45-.27-.72l3.25-33.35c.02-.21.12-.41.27-.55l2.49-2.38,18.99,53.94c.11.32.03.67-.2.91l-2.23,2.26c-.34.34-.89.35-1.23.02Z"/>
</svg>