<?xml version="1.0" encoding="UTF-8"?>
<svg id="Layer_1" data-name="Layer 1" xmlns="http://www.w3.org/2000/svg" viewBox="0 0 281.87 118.98">
  <defs>
    <style>
      .cls-1 {
        fill: #fcf7ee;
      }
    </style>
  </defs>
  <path class="cls-1" d="M257.54,18.76l7.62,81.48c.06.62-.43,1.15-1.05,1.15h-58.62c-.65,0-1.15-.59-1.04-1.23l3.68-21.33c.09-.52.55-.89,1.07-.87l36.52,1.19c.66.02,1.17-.56,1.07-1.21l-6.14-39.21c-.09-.55-.59-.94-1.14-.88l-16.06,1.62c-.62.06-1.15-.42-1.16-1.04l-.05-19.56c0-.58.47-1.05,1.05-1.05h33.19c.54,0,1,.41,1.05.95Z"/>
  <path class="cls-1" d="M177.64,19.02l-5.96,58.64c-.07.65.47,1.2,1.11,1.15l16.06-1.07c.53-.04,1.01.33,1.1.86l3.95,21.54c.12.65-.38,1.24-1.04,1.24l-86.12-.18c-.71,0-1.22-.7-1-1.37l6.86-21.17c.14-.44.57-.74,1.03-.73l40.75,1.28c.6.02,1.1-.48,1.08-1.08l-1.12-39.19c-.02-.6-.54-1.07-1.14-1.02l-33.62,2.9c-.61.05-1.14-.43-1.14-1.04l-.05-20.87c0-.58.47-1.05,1.05-1.05h57.12c.62,0,1.11.54,1.05,1.16Z"/>
  <path class="cls-1" d="M13.68,19.03l18.03,81.53c.11.48.53.82,1.03.82l48-.1c.48,0,.89-.32,1.01-.79l21.26-81.43c.17-.67-.33-1.32-1.02-1.32h-46.82c-.58,0-1.05.47-1.05,1.05l.05,19.58c0,.61.52,1.09,1.14,1.04l19.72-1.6c.65-.05,1.19.49,1.13,1.14l-3.31,37.78c-.05.53-.48.94-1,.96l-27.56,1.13c-.58.02-1.06-.42-1.09-1l-3.01-59.11c-.03-.56-.49-1-1.05-1H14.71c-.67,0-1.17.62-1.03,1.28Z"/>
</svg>