<svg width="40" height="50" viewBox="0 0 40 50" fill="none" xmlns="http://www.w3.org/2000/svg" aria-hidden="true">
  <path d="M12.6697 33.7209L7.35211 19.1546C7.32219 19.0737 7.33851 18.982 7.39835 18.9172L11.054 14.7713C11.1356 14.6768 11.277 14.6634 11.3777 14.7389L15.3461 17.7142C15.3951 17.7492 15.4277 17.8032 15.4386 17.8625L17.5983 30.1198C17.6146 30.2061 17.5792 30.2924 17.5112 30.3464L13.045 33.8261C12.9172 33.9259 12.7268 33.8719 12.6724 33.7209H12.6697Z" fill="currentColor"/>
  <path d="M14.7205 44.2598L10.2978 38.9243C10.2135 38.8245 10.2298 38.6761 10.3305 38.5925L23.4707 27.746C23.5251 27.7002 23.5985 27.6813 23.6693 27.6948L28.7148 28.6928C28.878 28.7252 28.9596 28.9086 28.8726 29.0489L26.8734 32.2777L19.5512 44.017C19.5186 44.0683 19.4696 44.1061 19.4098 44.1223L15.7242 45.1176C15.6399 45.1392 15.5501 45.1176 15.4903 45.0529L14.7314 44.2733C14.7314 44.2733 14.7232 44.2652 14.7178 44.2598H14.7205Z" fill="currentColor"/>
  <path d="M23.4326 25.6393L19.6246 29.0354C19.4832 29.1595 19.2602 29.0839 19.2275 28.8978L17.7098 19.9045L17.4459 18.2644C17.4351 18.1916 17.4568 18.1161 17.5085 18.0621L18.3109 17.2367L26.6286 8.80177C26.6993 8.72894 26.8108 8.71006 26.9033 8.75322L33.1674 11.7339C33.3007 11.7986 33.3442 11.9659 33.2572 12.0873L30.0612 16.503L25.5243 22.7395L23.468 25.5988C23.4571 25.6123 23.4462 25.6258 23.4326 25.6366V25.6393Z" fill="currentColor"/>
  <path d="M27.4419 45.4198L22.1216 44.1169C21.9638 44.0791 21.8904 43.9011 21.9747 43.7635L24.4417 39.7119L30.6732 29.4697C30.7249 29.3834 30.8255 29.3402 30.9234 29.3591L32.093 29.583C32.1991 29.6046 32.2807 29.6936 32.2861 29.8015L32.7621 37.6214C32.7649 37.6727 32.7513 37.7239 32.7241 37.7671L27.7003 45.3226C27.6431 45.4063 27.5425 45.4467 27.4419 45.4225V45.4198Z" fill="currentColor"/>
  <path d="M35.153 20.4845L32.6425 27.6624C32.6044 27.7757 32.4874 27.8404 32.3705 27.8161L25.7854 26.5079C25.6168 26.4755 25.5379 26.2786 25.6358 26.1383L34.1575 14.1805C34.2744 14.0187 34.5274 14.0618 34.5818 14.2533L35.8167 18.5369C35.8303 18.5854 35.8275 18.6367 35.8112 18.6826L35.1503 20.4818L35.153 20.4845Z" fill="currentColor"/>
  <path d="M25.2958 7.41531L22.7173 10.0103C22.6221 10.1047 22.4697 10.1047 22.3745 10.0103L19.3472 6.92977C19.2493 6.82996 19.2574 6.66812 19.3662 6.5791L21.6646 4.72595C21.7027 4.69358 21.7517 4.6747 21.8033 4.672L23.6692 4.57489C23.759 4.5695 23.8433 4.61535 23.8896 4.69088L25.3339 7.12938C25.3883 7.22109 25.3747 7.33978 25.2985 7.41531H25.2958Z" fill="currentColor"/>
  <path d="M17.5792 15.1084L16.4804 16.2279C16.396 16.3142 16.26 16.3223 16.1648 16.2521L12.2753 13.347C12.1583 13.2607 12.1474 13.088 12.2535 12.9882L17.4595 7.98175C17.5575 7.88734 17.7125 7.89273 17.8023 7.99254L20.9438 11.4237C21.0282 11.5181 21.0254 11.6611 20.9357 11.7501L17.5792 15.1111V15.1084Z" fill="currentColor"/>
  <path d="M9.97687 35.9301L4.24587 30.5001C4.19147 30.4489 4.16699 30.3787 4.17243 30.3059L5.05643 21.3099C5.06187 21.2532 5.08907 21.1993 5.12987 21.1615L5.80714 20.5195L10.9724 35.0696C11.0023 35.1559 10.9805 35.2503 10.918 35.3151L10.3114 35.9247C10.2189 36.0164 10.0693 36.0191 9.97687 35.9301Z" fill="currentColor"/>
</svg>
