<svg width="97" height="41" viewBox="0 0 97 41" fill="none" xmlns="http://www.w3.org/2000/svg" aria-hidden="true">
  <path d="M88.6273 6.46461L91.2496 34.5423C91.2702 34.7559 91.1016 34.9385 90.8882 34.9385H70.7153C70.4916 34.9385 70.3196 34.7352 70.3574 34.5147L71.6238 27.1645C71.6548 26.9853 71.8131 26.8578 71.992 26.8647L84.5597 27.2747C84.7868 27.2816 84.9623 27.0818 84.9279 26.8578L82.8149 13.3462C82.784 13.1567 82.6119 13.0223 82.4226 13.0429L76.8959 13.6012C76.6825 13.6219 76.5001 13.4565 76.4967 13.2428L76.4795 6.50251C76.4795 6.30265 76.6412 6.14069 76.8408 6.14069H88.2625C88.4483 6.14069 88.6066 6.28197 88.6238 6.46805L88.6273 6.46461Z" fill="currentColor"/>
  <path d="M61.1313 6.55421L59.0803 26.7613C59.0562 26.9853 59.242 27.1748 59.4623 27.1576L64.989 26.7889C65.1714 26.7751 65.3366 26.9026 65.3675 27.0852L66.7269 34.5078C66.7682 34.7318 66.5961 34.9351 66.369 34.9351L36.7325 34.8731C36.4881 34.8731 36.3126 34.6319 36.3883 34.401L38.7491 27.1059C38.7973 26.9543 38.9452 26.8509 39.1035 26.8543L53.1268 27.2954C53.3333 27.3023 53.5054 27.13 53.4985 26.9233L53.1131 13.4186C53.1062 13.2118 52.9272 13.0498 52.7208 13.0671L41.1511 14.0664C40.9412 14.0836 40.7588 13.9182 40.7588 13.708L40.7416 6.51631C40.7416 6.31644 40.9033 6.15448 41.1029 6.15448H60.7596C60.973 6.15448 61.1416 6.34056 61.121 6.55421H61.1313Z" fill="currentColor"/>
  <path d="M4.70771 6.55765L10.9124 34.6525C10.9502 34.8179 11.0948 34.9351 11.2668 34.9351L27.7851 34.9006C27.9503 34.9006 28.0914 34.7904 28.1327 34.6284L35.4489 6.56799C35.5074 6.33711 35.3353 6.11312 35.0979 6.11312H18.9857C18.7861 6.11312 18.6243 6.27508 18.6243 6.47495L18.6415 13.2221C18.6415 13.4323 18.8205 13.5977 19.0339 13.5805L25.8201 13.0292C26.0438 13.0119 26.2296 13.198 26.209 13.422L25.0699 26.4408C25.0527 26.6235 24.9047 26.7647 24.7258 26.7716L15.2415 27.161C15.0419 27.1679 14.8768 27.0163 14.8664 26.8164L13.8306 6.44738C13.8203 6.25441 13.662 6.10278 13.4693 6.10278H5.06217C4.8316 6.10278 4.65954 6.31643 4.70771 6.54387V6.55765Z" fill="currentColor"/>
</svg>
