<svg width="45" height="45" viewBox="0 0 45 45" fill="none" xmlns="http://www.w3.org/2000/svg">
<path d="M42.1299 11.8903L36.7185 27.0823C36.711 27.1032 36.6906 27.1168 36.6684 27.1154L26.7059 26.5294L16.4408 27.1153C16.4169 27.1167 16.3954 27.1009 16.3895 27.0777L12.6308 12.3468L19.0588 11.8235L27.2941 11.4457L36.1176 11.8235H42.0828C42.1174 11.8235 42.1415 11.8578 42.1299 11.8903Z" fill="#FCF7EE"/>
<path d="M2 3H10.3289C10.352 3 10.3721 3.0158 10.3775 3.03824L12.6308 12.3468M12.6308 12.3468L16.3895 27.0777C16.3954 27.1009 16.4169 27.1167 16.4408 27.1153L26.7059 26.5294L36.6684 27.1154C36.6906 27.1168 36.711 27.1032 36.7185 27.0823L42.1299 11.8903C42.1415 11.8578 42.1174 11.8235 42.0828 11.8235H36.1176L27.2941 11.4457L19.0588 11.8235L12.6308 12.3468Z" stroke="#FCF7EE" stroke-width="4"/>
<circle cx="17.294" cy="38.2941" r="4.20588" fill="#FCF7EE" stroke="#FCF7EE"/>
<circle cx="34.9412" cy="38.2941" r="4.70588" fill="#FCF7EE"/>
</svg>
