<svg width="1283" height="149" viewBox="0 0 1283 149" fill="none" xmlns="http://www.w3.org/2000/svg">
<g clip-path="url(#clip0_92_30)">
<path d="M300.5 2L373 7.5L457 2H538L613 10L695.5 6L774 10L854.5 5.5H946L1028 13.5H1107L1178 9.5L1244.5 13.5H1283V711.5L1244 712.5H1119L1058.5 719.5L982.5 717.5L910 712L826 717.5H745L670 709.5L587.5 713.5L509 709.5L428.5 714H337L255 706H176L105 710L38.5 706H0V8L39 7H164L224.5 0L300.5 2Z" fill="#E5DFD1"/>
</g>
<defs>
<clipPath id="clip0_92_30">
<rect width="1283" height="149" fill="white"/>
</clipPath>
</defs>
</svg>
