<?xml version="1.0" encoding="UTF-8"?>
<svg id="_חדש" data-name="חדש" xmlns="http://www.w3.org/2000/svg" viewBox="0 0 368.99 145.53">
  <defs>
    <style>
      .cls-1, .cls-2 {
        fill: #fcf7ee;
      }

      .cls-2 {
        font-family: FedraSerifH+L-MediumItalic, 'Fedra Serif H+L';
        font-size: 26.68px;
        font-style: italic;
        font-weight: 500;
      }
    </style>
  </defs>
  <g>
    <path class="cls-1" d="M271.76,96.03l-14.07-38.86c-.08-.22-.03-.46.12-.63l9.67-11.06c.22-.25.59-.29.86-.09l10.5,7.94c.13.1.21.24.24.4l5.71,32.7c.04.23-.05.46-.23.61l-11.82,9.28c-.34.27-.84.12-.99-.28Z"/>
    <path class="cls-1" d="M277.19,124.15l-11.7-14.23c-.22-.27-.18-.67.08-.89l34.76-28.94c.15-.12.34-.17.53-.13l13.35,2.67c.43.09.65.58.42.95l-5.29,8.62-19.37,31.32c-.08.14-.22.24-.37.28l-9.75,2.66c-.22.06-.46,0-.62-.17l-2.01-2.08s-.02-.02-.03-.04Z"/>
    <path class="cls-1" d="M300.24,74.47l-10.08,9.06c-.37.33-.96.13-1.05-.37l-4.02-24-.7-4.37c-.03-.2.03-.4.17-.54l2.12-2.2,22-22.5c.19-.19.48-.25.73-.13l16.58,7.95c.36.17.47.62.24.94l-8.46,11.78-12.01,16.64-5.44,7.63s-.06.07-.09.1Z"/>
    <path class="cls-1" d="M310.85,127.24l-14.08-3.48c-.41-.1-.61-.58-.39-.94l6.53-10.81,16.48-27.33c.14-.23.4-.34.66-.29l3.09.6c.28.05.49.29.51.58l1.26,20.87c0,.14-.03.27-.1.39l-13.29,20.15c-.15.22-.42.33-.68.27Z"/>
    <path class="cls-1" d="M331.25,60.72l-6.64,19.15c-.1.3-.41.48-.72.41l-17.42-3.49c-.45-.09-.66-.61-.39-.99l22.54-31.9c.31-.43.98-.32,1.13.19l3.27,11.43c.04.13.03.27-.01.39l-1.75,4.8Z"/>
    <path class="cls-1" d="M305.17,25.86l-6.82,6.92c-.25.25-.66.25-.9,0l-8.01-8.22c-.26-.27-.23-.7.05-.93l6.08-4.94c.1-.08.23-.13.37-.14l4.94-.26c.24-.01.46.11.58.31l3.82,6.5c.14.25.11.56-.1.76Z"/>
    <path class="cls-1" d="M284.76,46.37l-2.91,2.98c-.22.23-.58.26-.83.06l-10.29-7.75c-.31-.23-.34-.69-.06-.96l13.77-13.36c.26-.25.67-.24.91.03l8.31,9.15c.23.25.22.63-.02.87l-8.88,8.97Z"/>
    <path class="cls-1" d="M264.64,101.92l-15.16-14.49c-.14-.13-.21-.33-.19-.52l2.34-24c.01-.15.08-.29.19-.4l1.79-1.71,13.67,38.82c.08.23.02.48-.15.65l-1.6,1.62c-.24.25-.64.25-.89.01Z"/>
  </g>
  <g>
    <path class="cls-1" d="M212.22,22.67l5.51,58.89c.04.45-.31.83-.76.83h-42.37c-.47,0-.83-.43-.75-.89l2.66-15.41c.06-.37.39-.64.77-.63l26.4.86c.48.02.85-.41.77-.88l-4.44-28.34c-.06-.4-.43-.68-.83-.64l-11.61,1.17c-.45.05-.83-.3-.84-.75l-.03-14.14c0-.42.34-.76.76-.76h23.99c.39,0,.72.3.76.69Z"/>
    <path class="cls-1" d="M154.48,22.85l-4.31,42.39c-.05.47.34.87.81.83l11.61-.77c.38-.03.73.24.8.62l2.85,15.57c.09.47-.27.9-.75.9l-62.24-.13c-.51,0-.88-.5-.72-.99l4.96-15.3c.1-.32.41-.54.75-.52l29.45.93c.44.01.8-.34.78-.78l-.81-28.33c-.01-.44-.39-.77-.82-.73l-24.3,2.1c-.44.04-.82-.31-.82-.75l-.03-15.08c0-.42.34-.76.76-.76h41.29c.45,0,.8.39.76.84Z"/>
    <path class="cls-1" d="M35.97,22.86l13.03,58.93c.08.35.39.6.74.6l34.69-.07c.34,0,.65-.23.73-.57l15.36-58.85c.13-.48-.24-.95-.73-.95h-33.84c-.42,0-.76.34-.76.76l.03,14.15c0,.44.38.79.82.76l14.25-1.15c.47-.04.86.35.82.82l-2.39,27.31c-.03.38-.34.68-.73.69l-19.92.82c-.42.02-.77-.3-.79-.72l-2.18-42.72c-.02-.4-.35-.72-.76-.72h-17.65c-.49,0-.85.45-.74.92Z"/>
  </g>
  <text class="cls-2" transform="translate(41.82 124.56)"><tspan x="0" y="0">כמו שהטבע התכוון</tspan></text>
</svg>